# xmcd
#
# Track frame offsets: 
#        182
#        35615
#        42907
#        55762
#        64632
#        78090
#        100885
#        116287
#        123185
#        132437
#        150687
#        156232
#        161907
#        166207
#        182707
#        192065
#        228187
#        237835
#        253062
#        262412
#        269325
#
# Disc length: 3793 seconds
#
# Revision: 5
# Processed by: cddbd v1.5.2PL0 Copyright (c) Steve Scherf et al.
# Submitted via: ExactAudioCopy v1.3
#
DISCID=1a0ecf15
DTITLE=Academy of St. Martin in the Fields - Konzerte
DYEAR=1986
DGENRE=Classical
TTITLE0=Music for the Royal Fireworks - Ouverture
TTITLE1=Music for the Royal Fireworks - Bourrée
TTITLE2=Music for the Royal Fireworks - La Paix
TTITLE3=Music for the Royal Fireworks - La Réjouissance
TTITLE4=Music for the Royal Fireworks - Minuet and Trio
TTITLE5=Water Music Suite in G Major - Minuet and Trio
TTITLE6=Water Music Suite in G Major - Rigaudon I and II
TTITLE7=Water Music Suite in G Major - Gigue
TTITLE8=Water Music Suite in D Major - Prelude
TTITLE9=Water Music Suite in D Major - Hornpipe
TTITLE10=Water Music Suite in D Major - Minuet
TTITLE11=Water Music Suite in D Major - Lentement
TTITLE12=Water Music Suite in D Major - Bourrée
TTITLE13=Water Music Suite in F Major - Ouverture
TTITLE14=Water Music Suite in F Major - Adagio E Staccato
TTITLE15=Water Music Suite in F Major - Hornpipe and Andante
TTITLE16=Water Music Suite in F Major - Jig
TTITLE17=Water Music Suite in F Major - Air
TTITLE18=Water Music Suite in F Major - Minuet
TTITLE19=Water Music Suite in F Major - Bourrée and Hornpipe
TTITLE20=Water Music Suite in F Major - Gavotte
EXTD=
EXTT0=
EXTT1=
EXTT2=
EXTT3=
EXTT4=
EXTT5=
EXTT6=
EXTT7=
EXTT8=
EXTT9=
EXTT10=
EXTT11=
EXTT12=
EXTT13=
EXTT14=
EXTT15=
EXTT16=
EXTT17=
EXTT18=
EXTT19=
EXTT20=
PLAYORDER=
